<svg xmlns="http://www.w3.org/2000/svg" width="34" height="34" viewBox="0 0 24 24">
  <defs>
    <linearGradient id="g" x1="0" y1="0" x2="1" y2="1">
      <stop offset="0" stop-color="#FF7AC3"/>
      <stop offset="1" stop-color="#E84393"/>
    </linearGradient>
  </defs>
  <path fill="url(#g)" d="M12 1.6l2.3 1.9 2.9-.6 1.2 2.7 2.7 1.2-.6 2.9 1.9 2.3-1.9 2.3.6 2.9-2.7 1.2-1.2 2.7-2.9-.6L12 22.4l-2.3-1.9-2.9.6-1.2-2.7-2.7-1.2.6-2.9L1.6 12l1.9-2.3-.6-2.9 2.7-1.2 1.2-2.7 2.9.6z"/>
  <path fill="none" stroke="#fff" stroke-width="2.4" stroke-linecap="round" stroke-linejoin="round" d="M7.2 12.4l3 3 6.4-6.6"/>
</svg>
